# xmcd
#
# Track frame offsets:
#	150
#	17629
#	32235
#	50836
#	65583
#	81518
#	96558
#	111665
#	125739
#	150519
#	165860
#	185449
#	200191
#	217023
#	234527
#	252404
#	267761
#	282025
#	294717
#	308556
#	324078
#	337328
#
# Disc length: 4775 seconds
# Revision: 0
# Processed by: cddbd v1.5.2PL0 Copyright (c) Steve Scherf et al.
# Submitted via: dBpowerAMP V12.0
#
DISCID=5712a516
DTITLE=Various Artist - Boogie - Australian Blues, R&B and Heavy Rock From The '70's
DYEAR=2012
DGENRE=Rock
TTITLE0=Chain - Black And Blue
TTITLE1=Blackfeather - Boppin' The Blues
TTITLE2=Billy Thorpe and The Aztecs - CC Rider
TTITLE3=Band Of Light - The Destiny Song
TTITLE4=Spectrum - I'll Be Gone
TTITLE5=La De Das - Gonna See My Baby Tonight
TTITLE6=Stevie Wright - Guitar Band
TTITLE7=Rose Tattoo - Bad Boy For Love
TTITLE8=Buster Brown - Something To Say
TTITLE9=Coloured Balls - Flash
TTITLE10=Kahvas Jute - She's So Hard To Shake
TTITLE11=Masters Apprentices - I'm Your Satisfier
TTITLE12=Buffalo - Sunrise (Come My Way)
TTITLE13=Madder Lake - 12lb Toothbrush
TTITLE14=Wendy Saddington And The Copperwine - Backlash Blues
TTITLE15=Friends - Bird On A Wire (Live At Sunbury 1973)
TTITLE16=Indelelible Murtceps - Esmerelda
TTITLE17=Captain Matchbox Whoopee Band - Your Feets Too Big
TTITLE18=Renee Geyer - Dust My Blues
TTITLE19=Cold Chisel - Home And Broken Hearted
TTITLE20=Ariel - Worm-Turning Blues
TTITLE21=Daddy Cool - Daddy Rocks Off
EXTD=
EXTT0=
EXTT1=
EXTT2=
EXTT3=
EXTT4=
EXTT5=
EXTT6=
EXTT7=
EXTT8=
EXTT9=
EXTT10=
EXTT11=
EXTT12=
EXTT13=
EXTT14=
EXTT15=
EXTT16=
EXTT17=
EXTT18=
EXTT19=
EXTT20=
EXTT21=
PLAYORDER=
